<?xml version="1.0" standalone="no"?>
<!DOCTYPE svg PUBLIC "-//W3C//DTD SVG 20010904//EN"
 "http://www.w3.org/TR/2001/REC-SVG-20010904/DTD/svg10.dtd">
          <svg version="1.0" xmlns="http://www.w3.org/2000/svg" aria-hidden="true" role="img" width="35.93" height="32" class="iconify iconify--logos" viewBox="0 0 256 228" preserveAspectRatio="xMidYMid meet">

            <g transform="translate(-50,300.000000) scale(0.100000,-0.100000)"
  fill="#00D8FF" stroke="none">
    <path d="M1470 2965 c-153 -28 -349 -111 -470 -201 -251 -184 -419 -449 -476
  -751 -24 -131 -15 -375 19 -498 69 -247 196 -448 381 -603 96 -80 136 -107
  242 -160 164 -82 320 -117 529 -116 114 1 161 6 253 27 196 45 373 138 517
  269 40 38 79 68 85 68 7 0 94 -57 193 -127 l181 -126 29 34 c34 40 147 209
  147 220 0 4 -83 65 -185 136 -102 70 -183 132 -181 138 81 184 113 305 122
  468 14 232 -40 451 -166 671 -86 151 -275 333 -440 424 -87 49 -227 99 -337
  121 -120 25 -324 27 -443 6z m434 -249 c277 -77 483 -241 610 -486 176 -339
  118 -770 -142 -1051 -69 -74 -140 -135 -148 -126 -3 3 12 29 34 59 74 98 140
  263 158 396 l6 48 -83 39 c-107 48 -227 90 -319 109 -39 8 -74 17 -77 20 -4 3
  7 16 23 28 204 156 254 431 116 644 -52 80 -109 129 -201 172 -67 32 -86 37
  -172 40 -70 3 -112 0 -155 -13 -188 -54 -315 -202 -344 -400 -22 -143 41 -310
  157 -414 l66 -60 -39 -6 c-109 -19 -233 -60 -366 -122 -91 -42 -91 -43 -58
  -181 25 -103 75 -213 135 -298 25 -35 43 -64 39 -64 -19 0 -116 85 -169 149
  -162 193 -233 401 -222 651 6 147 28 233 92 365 131 271 382 461 683 515 73
  14 308 4 376 -14z m-148 -1102 c35 -20 66 -39 68 -43 3 -4 -17 -39 -44 -77
  -28 -37 -48 -75 -45 -84 19 -64 105 -395 105 -406 0 -14 -138 -167 -156 -172
  -6 -2 -45 35 -87 81 l-76 84 33 129 c55 209 67 248 88 270 15 17 16 23 5 27
  -20 8 -109 135 -102 147 7 11 126 80 138 80 5 0 38 -16 73 -36z"/>
            </g>
          </svg>
